# xmcd
#
# Track frame offsets:
#	150
#	11213
#	21323
#	34120
#	46020
#	58435
#	68545
#	79020
#	89678
#	100930
#	113570
#	125625
#	138040
#	148040
#	159577
#	167969
#	175636
#	185876
#	197976
#	207703
#	218503
#	230401
#	239704
#	248554
#	257142
#	267092
#	273137
#	283392
#	294445
#	303833
#	313665
#
# Disc length: 4331 seconds
# Revision: 2
# Processed by: cddbd v1.5.2PL0 Copyright (c) Steve Scherf et al.
# Submitted via: dBpowerAMP V12.0
#
DISCID=d210e91f
DTITLE=Various Artist - The Total Johnny Cash Sun Collection
DYEAR=1957
DGENRE=Country
TTITLE0=Johnny Cash and The Tennessee Two - Cry, Cry, Cry
TTITLE1=Johnny Cash - Hey Porter
TTITLE2=Johnny Cash - Folsom Prison Blues
TTITLE3=Johnny Cash - So Doggone Lonesome
TTITLE4=Johnny Cash - I Walk the Line
TTITLE5=Johnny Cash - Get Rhythm
TTITLE6=Johnny Cash - There You Go
TTITLE7=Johnny Cash - Train of Love
TTITLE8=Johnny Cash - Don't Make Me Go
TTITLE9=Johnny Cash - Next in Line
TTITLE10=Johnny Cash - Home of the Blues
TTITLE11=Johnny Cash - Give My Love to Rose
TTITLE12=Johnny Cash - Ballad of a Teenage Queen
TTITLE13=Johnny Cash and The Tennessee Two - Big River
TTITLE14=Johnny Cash - Guess Things Happen That Way
TTITLE15=Johnny Cash - Come in, Stranger
TTITLE16=Johnny Cash - The Ways of a Woman in Love
TTITLE17=Johnny Cash - You're the Nearest Thing to Heaven
TTITLE18=Johnny Cash - It's Just About Time
TTITLE19=Johnny Cash - I Just Thought You'd Like to Know
TTITLE20=Johnny Cash - Thanks a Lot
TTITLE21=Johnny Cash - Luther Played the Boogie
TTITLE22=Johnny Cash - Katy Too
TTITLE23=Johnny Cash - I Forgot to Remember to Forget
TTITLE24=Johnny Cash - Goodbye Little Darlin'
TTITLE25=Johnny Cash - You Tell Me
TTITLE26=Johnny Cash - Straight A's In Love
TTITLE27=Johnny Cash - I Love You Because
TTITLE28=Johnny Cash - Down the Street to 301
TTITLE29=Johnny Cash - Story of a Broken Heart
TTITLE30=Johnny Cash - Mean Eyed Cat
EXTD=
EXTT0=
EXTT1=
EXTT2=
EXTT3=
EXTT4=
EXTT5=
EXTT6=
EXTT7=
EXTT8=
EXTT9=
EXTT10=
EXTT11=
EXTT12=
EXTT13=
EXTT14=
EXTT15=
EXTT16=
EXTT17=
EXTT18=
EXTT19=
EXTT20=
EXTT21=
EXTT22=
EXTT23=
EXTT24=
EXTT25=
EXTT26=
EXTT27=
EXTT28=
EXTT29=
EXTT30=
PLAYORDER=
